<svg width="4987" height="1477" viewBox="0 0 4987 1477" fill="none" xmlns="http://www.w3.org/2000/svg">
<g filter="url(#filter0_i_69_592)">
<path d="M4292.08 1009.41V900.935H4254.39V880.054H4355.47V900.935H4317.77V1009.41H4292.08ZM4372.94 1009.41V880.054H4403.99L4442.98 959.697L4481.42 880.054H4512.27V1009.41H4486.4V923.848L4452.96 991.296H4432.45L4398.81 923.848V1009.41H4372.94Z" fill="#E5E5E5"/>
</g>
<g filter="url(#filter1_i_69_592)">
<path d="M510.936 949.215V663.753H590.231V949.215H510.936ZM550.583 626.938C536.234 626.938 524.529 622.784 515.467 614.477C506.405 605.793 501.873 595.22 501.873 582.759C501.873 569.921 506.405 559.348 515.467 551.041C524.529 542.734 536.234 538.581 550.583 538.581C564.932 538.581 576.637 542.734 585.699 551.041C594.762 559.348 599.293 569.921 599.293 582.759C599.293 595.22 594.762 605.793 585.699 614.477C576.637 622.784 564.932 626.938 550.583 626.938ZM666.322 949.215V663.753H735.988L741.652 710.197C750.337 694.338 762.608 681.5 778.467 671.683C794.704 661.865 814.15 656.957 836.806 656.957C860.217 656.957 880.04 662.054 896.277 672.249C912.513 682.067 924.785 696.415 933.092 715.295C941.777 734.175 946.119 757.397 946.119 784.961V949.215H867.391V792.324C867.391 770.424 862.671 753.621 853.231 741.915C844.169 729.832 829.631 723.791 809.619 723.791C797.536 723.791 786.586 726.812 776.768 732.853C766.951 738.517 759.21 746.824 753.546 757.774C748.26 768.347 745.617 781.374 745.617 796.855V949.215H666.322ZM1806.58 949.215C1786.19 949.215 1768.26 946.005 1752.78 939.586C1737.67 933.167 1725.97 922.594 1717.66 907.868C1709.35 893.142 1705.2 873.13 1705.2 847.831V730.021H1655.92V663.753H1705.2L1713.7 585.025H1784.49V663.753H1858.69V730.021H1784.49V848.397C1784.49 860.858 1787.14 869.542 1792.42 874.451C1798.09 879.36 1807.53 881.814 1820.74 881.814H1858.13V949.215H1806.58ZM2019.84 956.012C1996.43 956.012 1976.8 952.236 1960.94 944.684C1945.46 936.754 1933.94 926.37 1926.39 913.532C1919.21 900.316 1915.63 885.779 1915.63 869.92C1915.63 852.928 1919.97 837.824 1928.65 824.609C1937.34 811.393 1950.74 801.009 1968.87 793.457C1986.99 785.905 2009.65 782.129 2036.84 782.129H2107.07C2107.07 768.536 2105.18 757.397 2101.4 748.712C2098.01 739.65 2092.34 732.853 2084.41 728.322C2076.86 723.791 2066.67 721.525 2053.83 721.525C2039.86 721.525 2027.96 724.546 2018.14 730.588C2008.7 736.629 2002.85 745.691 2000.59 757.774H1923.56C1925.82 737.384 1932.62 719.826 1943.95 705.1C1955.27 689.996 1970.38 678.291 1989.26 669.984C2008.52 661.299 2030.23 656.957 2054.39 656.957C2081.2 656.957 2104.42 661.488 2124.06 670.55C2144.07 679.612 2159.36 692.639 2169.94 709.631C2180.89 726.623 2186.36 747.579 2186.36 772.501V949.215H2119.53L2110.47 906.169C2106.69 913.721 2101.78 920.518 2095.74 926.559C2090.08 932.601 2083.47 937.887 2075.92 942.418C2068.36 946.572 2059.87 949.781 2050.43 952.047C2041.37 954.69 2031.17 956.012 2019.84 956.012ZM2039.1 894.841C2048.54 894.841 2057.04 893.331 2064.59 890.31C2072.14 886.912 2078.56 882.192 2083.85 876.15C2089.13 870.109 2093.47 863.312 2096.87 855.76C2100.27 847.831 2102.54 839.335 2103.67 830.273V829.706H2046.46C2035.51 829.706 2026.45 831.217 2019.28 834.237C2012.48 836.88 2007.38 840.845 2003.98 846.132C2000.59 851.04 1998.89 856.704 1998.89 863.123C1998.89 869.92 2000.59 875.773 2003.98 880.681C2007.38 885.59 2012.1 889.177 2018.14 891.443C2024.19 893.708 2031.17 894.841 2039.1 894.841ZM2257.64 949.215V663.753H2327.31L2332.97 710.197C2341.65 694.338 2353.93 681.5 2369.79 671.683C2386.02 661.865 2405.47 656.957 2428.12 656.957C2451.53 656.957 2471.36 662.054 2487.59 672.249C2503.83 682.067 2516.1 696.415 2524.41 715.295C2533.09 734.175 2537.44 757.397 2537.44 784.961V949.215H2458.71V792.324C2458.71 770.424 2453.99 753.621 2444.55 741.915C2435.49 729.832 2420.95 723.791 2400.94 723.791C2388.85 723.791 2377.9 726.812 2368.09 732.853C2358.27 738.517 2350.53 746.824 2344.86 757.774C2339.58 768.347 2336.93 781.374 2336.93 796.855V949.215H2257.64ZM2739.69 949.215C2719.3 949.215 2701.37 946.005 2685.89 939.586C2670.78 933.167 2659.08 922.594 2650.77 907.868C2642.46 893.142 2638.31 873.13 2638.31 847.831V730.021H2589.03V663.753H2638.31L2646.8 585.025H2717.6V663.753H2791.8V730.021H2717.6V848.397C2717.6 860.858 2720.25 869.542 2725.53 874.451C2731.2 879.36 2740.64 881.814 2753.85 881.814H2791.23V949.215H2739.69ZM2856.67 1073.82V663.753H2926.9L2935.96 702.268C2941.62 694.338 2948.61 686.975 2956.92 680.179C2965.22 673.004 2975.04 667.34 2986.37 663.187C2998.07 659.033 3011.48 656.957 3026.58 656.957C3053.01 656.957 3076.43 663.565 3096.82 676.78C3117.58 689.996 3133.82 707.932 3145.53 730.588C3157.23 752.866 3163.08 778.353 3163.08 807.05C3163.08 835.748 3157.04 861.424 3144.96 884.08C3132.88 906.358 3116.64 923.916 3096.25 936.754C3075.86 949.592 3052.83 956.012 3027.15 956.012C3006.38 956.012 2988.26 952.236 2972.78 944.684C2957.67 937.132 2945.4 926.559 2935.96 912.966V1073.82H2856.67ZM3007.89 886.912C3022.24 886.912 3035.08 883.513 3046.41 876.717C3057.73 869.92 3066.61 860.48 3073.03 848.397C3079.45 836.314 3082.66 822.532 3082.66 807.05C3082.66 791.191 3079.45 777.22 3073.03 765.137C3066.61 753.054 3057.73 743.615 3046.41 736.818C3035.08 729.644 3022.24 726.056 3007.89 726.056C2993.17 726.056 2980.14 729.644 2968.81 736.818C2957.86 743.615 2949.18 753.054 2942.76 765.137C2936.34 777.22 2933.13 791.003 2933.13 806.484C2933.13 822.343 2936.34 836.314 2942.76 848.397C2949.18 860.48 2957.86 869.92 2968.81 876.717C2980.14 883.513 2993.17 886.912 3007.89 886.912ZM3229.47 949.215V663.753H3299.7L3307.06 716.428C3314.24 703.967 3322.92 693.394 3333.12 684.71C3343.31 676.025 3355.21 669.228 3368.8 664.32C3382.39 659.411 3397.12 656.957 3412.98 656.957V740.783H3386.36C3375.03 740.783 3364.46 742.104 3354.64 744.747C3345.2 747.391 3336.89 751.733 3329.72 757.774C3322.92 763.438 3317.63 771.368 3313.86 781.563C3310.46 791.38 3308.76 803.841 3308.76 818.945V949.215H3229.47ZM3595.48 956.012C3568.3 956.012 3543.75 949.781 3521.85 937.321C3499.95 924.482 3482.58 906.735 3469.75 884.08C3457.28 861.424 3451.05 835.748 3451.05 807.05C3451.05 777.598 3457.28 751.544 3469.75 728.888C3482.58 706.233 3499.95 688.675 3521.85 676.214C3543.75 663.376 3568.49 656.957 3596.05 656.957C3623.61 656.957 3648.35 663.376 3670.25 676.214C3692.15 688.675 3709.33 706.233 3721.79 728.888C3734.63 751.166 3741.05 777.032 3741.05 806.484C3741.05 835.936 3734.63 861.99 3721.79 884.646C3708.95 906.924 3691.58 924.482 3669.68 937.321C3648.16 949.781 3623.43 956.012 3595.48 956.012ZM3595.48 887.478C3607.94 887.478 3618.9 884.457 3628.33 878.416C3637.77 872.374 3645.33 863.312 3650.99 851.229C3657.03 839.146 3660.05 824.231 3660.05 806.484C3660.05 788.737 3657.22 773.822 3651.56 761.739C3645.89 749.656 3638.15 740.594 3628.33 734.552C3618.9 728.511 3608.13 725.49 3596.05 725.49C3584.35 725.49 3573.58 728.511 3563.77 734.552C3553.95 740.594 3546.21 749.656 3540.54 761.739C3534.88 773.822 3532.05 788.737 3532.05 806.484C3532.05 824.231 3534.88 839.146 3540.54 851.229C3546.21 863.312 3553.76 872.374 3563.2 878.416C3573.02 884.457 3583.78 887.478 3595.48 887.478ZM3933.79 956.012C3907.74 956.012 3884.52 949.592 3864.13 936.754C3843.74 923.916 3827.5 906.169 3815.42 883.513C3803.71 860.858 3797.86 835.37 3797.86 807.05C3797.86 777.976 3803.71 752.299 3815.42 730.021C3827.5 707.365 3843.92 689.619 3864.69 676.78C3885.84 663.565 3909.44 656.957 3935.49 656.957C3955.88 656.957 3973.63 660.733 3988.73 668.284C4003.84 675.459 4016.11 685.843 4025.55 699.436V541.413H4104.84V949.215H4034.04L4025.55 910.7C4019.88 918.63 4012.9 926.182 4004.59 933.356C3996.28 940.153 3986.28 945.628 3974.57 949.781C3962.87 953.935 3949.27 956.012 3933.79 956.012ZM3953.05 886.912C3967.78 886.912 3980.8 883.513 3992.13 876.717C4003.46 869.92 4012.14 860.48 4018.18 848.397C4024.6 836.314 4027.81 822.343 4027.81 806.484C4027.81 790.625 4024.6 776.654 4018.18 764.571C4012.14 752.488 4003.46 743.048 3992.13 736.251C3980.8 729.455 3967.78 726.056 3953.05 726.056C3938.7 726.056 3925.86 729.455 3914.54 736.251C3903.21 743.048 3894.33 752.488 3887.91 764.571C3881.87 776.654 3878.85 790.436 3878.85 805.918C3878.85 821.777 3881.87 835.936 3887.91 848.397C3894.33 860.48 3903.21 869.92 3914.54 876.717C3925.86 883.513 3938.7 886.912 3953.05 886.912Z" fill="#E5E5E5"/>
</g>
<g filter="url(#filter2_i_69_592)">
<path fill-rule="evenodd" clip-rule="evenodd" d="M1678.71 760.721L1417.71 691.537L1712.53 369.676L997.912 694.547L1258.91 763.731L964.089 1085.59L1678.71 760.721Z" fill="#F56876"/>
</g>
<defs>
<filter id="filter0_i_69_592" x="4254.39" y="880.054" width="285.816" height="150.298" filterUnits="userSpaceOnUse" color-interpolation-filters="sRGB">
<feFlood flood-opacity="0" result="BackgroundImageFix"/>
<feBlend mode="normal" in="SourceGraphic" in2="BackgroundImageFix" result="shape"/>
<feColorMatrix in="SourceAlpha" type="matrix" values="0 0 0 0 0 0 0 0 0 0 0 0 0 0 0 0 0 0 127 0" result="hardAlpha"/>
<feOffset dx="34.9108" dy="20.9465"/>
<feGaussianBlur stdDeviation="13.9643"/>
<feComposite in2="hardAlpha" operator="arithmetic" k2="-1" k3="1"/>
<feColorMatrix type="matrix" values="0 0 0 0 0 0 0 0 0 0 0 0 0 0 0 0 0 0 0.2 0"/>
<feBlend mode="normal" in2="shape" result="effect1_innerShadow_69_592"/>
</filter>
<filter id="filter1_i_69_592" x="501.873" y="538.581" width="3688.57" height="599.443" filterUnits="userSpaceOnUse" color-interpolation-filters="sRGB">
<feFlood flood-opacity="0" result="BackgroundImageFix"/>
<feBlend mode="normal" in="SourceGraphic" in2="BackgroundImageFix" result="shape"/>
<feColorMatrix in="SourceAlpha" type="matrix" values="0 0 0 0 0 0 0 0 0 0 0 0 0 0 0 0 0 0 127 0" result="hardAlpha"/>
<feOffset dx="107.005" dy="64.2028"/>
<feGaussianBlur stdDeviation="42.8019"/>
<feComposite in2="hardAlpha" operator="arithmetic" k2="-1" k3="1"/>
<feColorMatrix type="matrix" values="0 0 0 0 0 0 0 0 0 0 0 0 0 0 0 0 0 0 0.2 0"/>
<feBlend mode="normal" in2="shape" result="effect1_innerShadow_69_592"/>
</filter>
<filter id="filter2_i_69_592" x="964.089" y="369.676" width="748.443" height="801.521" filterUnits="userSpaceOnUse" color-interpolation-filters="sRGB">
<feFlood flood-opacity="0" result="BackgroundImageFix"/>
<feBlend mode="normal" in="SourceGraphic" in2="BackgroundImageFix" result="shape"/>
<feColorMatrix in="SourceAlpha" type="matrix" values="0 0 0 0 0 0 0 0 0 0 0 0 0 0 0 0 0 0 127 0" result="hardAlpha"/>
<feOffset dy="85.6038"/>
<feGaussianBlur stdDeviation="42.8019"/>
<feComposite in2="hardAlpha" operator="arithmetic" k2="-1" k3="1"/>
<feColorMatrix type="matrix" values="0 0 0 0 0 0 0 0 0 0 0 0 0 0 0 0 0 0 0.25 0"/>
<feBlend mode="normal" in2="shape" result="effect1_innerShadow_69_592"/>
</filter>
</defs>
</svg>
